<?xml version="1.0" ?><!DOCTYPE svg  PUBLIC '-//W3C//DTD SVG 1.1//EN'  'http://www.w3.org/Graphics/SVG/1.1/DTD/svg11.dtd'><svg enable-background="new 0 0 24 24" height="24px" id="Layer_1" version="1.1" viewBox="0 0 24 24" width="24px" xml:space="preserve" xmlns="http://www.w3.org/2000/svg" xmlns:xlink="http://www.w3.org/1999/xlink"><g><path d="M11.6,0.1c-0.5-0.2-1.1,0.4-1.1,0.4L3,8H0v8h3l7.5,7.5c0,0,0.6,0.7,1.1,0.4S12,23,12,23V1C12,1,12.1,0.3,11.6,0.1z M2,14   v-4h1v4H2z M4,10l4-4v12l-4-4V10z M10,20l-1-1V5l1-1V20z"/><path d="M16,12c0-1.9-1.3-3.4-3-3.9v1c1.2,0.4,2,1.5,2,2.8s-0.8,2.4-2,2.8v1C14.7,15.4,16,13.9,16,12z"/><path d="M19,12c0-3.5-2.6-6.4-6-6.9v1c2.8,0.5,5,2.9,5,5.9s-2.2,5.4-5,5.9v1C16.4,18.4,19,15.5,19,12z"/></g></svg>